#Comment line ignore any data following # character 
#Hierarchical Translation and Rotation (.htr) file 
[Header]	
#Header keywords are followed by a single value 
FileType HTR		#Single word string
DataType HTRS		#Translation followed by rotation and scale data
FileVersion 1		#integer
NumSegments 84		#integer
NumFrames 2		#integer
DataFrameRate 30		#integer, data frame rate in this file
EulerRotationOrder ZYX
CalibrationUnits mm
RotationUnits Degrees
GlobalAxisofGravity Y
BoneLengthAxis Y
ScaleFactor 1.00
[SegmentNames&Hierarchy]
#CHILD	PARENT
MASTER GLOBAL
root MASTER
chest root
L_mid_tent01 root
R_mid_tent01 root
spine01 root
Bip01_Neck chest
L_humerus chest
R_humerus chest
weapon_bone chest
Bip01_Head Bip01_Neck
eye_left_bone Bip01_Head
eye_right_bone Bip01_Head
L_forearm L_humerus
L_front_hand L_forearm
L_weapon_bone L_forearm
L_front_hand01_01 L_front_hand
L_front_hand02_01 L_front_hand
L_front_hand03_01 L_front_hand
L_front_hand01_02 L_front_hand01_01
L_front_hand02_02 L_front_hand02_01
L_front_hand03_02 L_front_hand03_01
R_forearm R_humerus
R_front_hand R_forearm
R_weapon_bone R_forearm
R_front_hand01_01 R_front_hand
R_front_hand02_01 R_front_hand
R_front_hand03_01 R_front_hand
R_front_hand01_02 R_front_hand01_01
R_front_hand02_02 R_front_hand02_01
R_front_hand03_02 R_front_hand03_01
null_rope01_connect L_mid_tent01
Rope1_Seg01 null_rope01_connect
Rope1_Seg02 Rope1_Seg01
Rope1_Seg03 Rope1_Seg02
Rope1_Seg04 Rope1_Seg03
Rope1_Seg05 Rope1_Seg04
Rope1_Seg06 Rope1_Seg05
Rope1_Seg07 Rope1_Seg06
Rope1_Seg09 Rope1_Seg07
L_mid_hand01 Rope1_Seg09
L_mid_hand02 Rope1_Seg09
L_mid_hand03 Rope1_Seg09
null_rope02_connect R_mid_tent01
Rope2_Seg01 null_rope02_connect
Rope2_Seg02 Rope2_Seg01
Rope2_Seg03 Rope2_Seg02
Rope2_Seg04 Rope2_Seg03
Rope2_Seg05 Rope2_Seg04
Rope2_Seg06 Rope2_Seg05
Rope2_Seg07 Rope2_Seg06
Rope2_Seg09 Rope2_Seg07
R_mid_hand01 Rope2_Seg09
R_mid_hand02 Rope2_Seg09
R_mid_hand03 Rope2_Seg09
spine02 spine01
spine03 spine02
pelvis spine03
null_rope03_connect pelvis
null_rope04_connect pelvis
Rope3_Seg01 null_rope03_connect
Rope3_Seg02 Rope3_Seg01
Rope3_Seg03 Rope3_Seg02
Rope3_Seg04 Rope3_Seg03
Rope3_Seg05 Rope3_Seg04
Rope3_Seg06 Rope3_Seg05
Rope3_Seg07 Rope3_Seg06
Rope3_Seg08 Rope3_Seg07
Rope3_Seg09 Rope3_Seg08
R_rear_hand01 Rope3_Seg09
R_rear_hand02 Rope3_Seg09
R_rear_hand03 Rope3_Seg09
Rope4_Seg01 null_rope04_connect
Rope4_Seg02 Rope4_Seg01
Rope4_Seg03 Rope4_Seg02
Rope4_Seg04 Rope4_Seg03
Rope4_Seg05 Rope4_Seg04
Rope4_Seg06 Rope4_Seg05
Rope4_Seg07 Rope4_Seg06
Rope4_Seg08 Rope4_Seg07
Rope4_Seg09 Rope4_Seg08
L_rear_hand01 Rope4_Seg09
L_rear_hand02 Rope4_Seg09
L_rear_hand03 Rope4_Seg09
[BasePosition]
#SegmentName Tx, Ty, Tz, Rx, Ry, Rz, BoneLength
MASTER 0.000000 0.000000 0.000000 -90.000000 0.000000 0.000000 10.000000 
root 0.000000 0.000000 0.000000 0.000000 0.000000 0.000000 10.000000 
chest 0.000000 0.000000 0.000000 0.000000 0.000000 0.000000 10.000000 
L_mid_tent01 0.000000 0.000000 0.000000 0.000000 0.000000 0.000000 10.000000 
R_mid_tent01 0.000000 0.000000 0.000000 0.000000 0.000000 0.000000 10.000000 
spine01 0.000000 0.000000 0.000000 0.000000 0.000000 0.000000 10.000000 
Bip01_Neck 0.000000 0.000000 0.000000 0.000000 0.000000 0.000000 10.000000 
L_humerus 0.000000 0.000000 0.000000 0.000000 0.000000 0.000000 10.000000 
R_humerus 0.000000 0.000000 0.000000 0.000000 0.000000 0.000000 10.000000 
weapon_bone 0.000000 0.000000 0.000000 0.000000 0.000000 0.000000 10.000000 
Bip01_Head 0.000000 0.000000 0.000000 0.000000 0.000000 0.000000 10.000000 
eye_left_bone 0.000000 0.000000 0.000000 0.000000 0.000000 0.000000 10.000000 
eye_right_bone 0.000000 0.000000 0.000000 0.000000 0.000000 0.000000 10.000000 
L_forearm 0.000000 0.000000 0.000000 0.000000 0.000000 0.000000 10.000000 
L_front_hand 0.000000 0.000000 0.000000 0.000000 0.000000 0.000000 10.000000 
L_weapon_bone 0.000000 0.000000 0.000000 0.000000 0.000000 0.000000 10.000000 
L_front_hand01_01 0.000000 0.000000 0.000000 0.000000 0.000000 0.000000 10.000000 
L_front_hand02_01 0.000000 0.000000 0.000000 0.000000 0.000000 0.000000 10.000000 
L_front_hand03_01 0.000000 0.000000 0.000000 0.000000 0.000000 0.000000 10.000000 
L_front_hand01_02 0.000000 0.000000 0.000000 0.000000 0.000000 0.000000 10.000000 
L_front_hand02_02 0.000000 0.000000 0.000000 0.000000 0.000000 0.000000 10.000000 
L_front_hand03_02 0.000000 0.000000 0.000000 0.000000 0.000000 0.000000 10.000000 
R_forearm 0.000000 0.000000 0.000000 0.000000 0.000000 0.000000 10.000000 
R_front_hand 0.000000 0.000000 0.000000 0.000000 0.000000 0.000000 10.000000 
R_weapon_bone 0.000000 0.000000 0.000000 0.000000 0.000000 0.000000 10.000000 
R_front_hand01_01 0.000000 0.000000 0.000000 0.000000 0.000000 0.000000 10.000000 
R_front_hand02_01 0.000000 0.000000 0.000000 0.000000 0.000000 0.000000 10.000000 
R_front_hand03_01 0.000000 0.000000 0.000000 0.000000 0.000000 0.000000 10.000000 
R_front_hand01_02 0.000000 0.000000 0.000000 0.000000 0.000000 0.000000 10.000000 
R_front_hand02_02 0.000000 0.000000 0.000000 0.000000 0.000000 0.000000 10.000000 
R_front_hand03_02 0.000000 0.000000 0.000000 0.000000 0.000000 0.000000 10.000000 
null_rope01_connect 0.000000 0.000000 0.000000 0.000000 0.000000 0.000000 10.000000 
Rope1_Seg01 0.000000 0.000000 0.000000 0.000000 0.000000 0.000000 10.000000 
Rope1_Seg02 0.000000 0.000000 0.000000 0.000000 0.000000 0.000000 10.000000 
Rope1_Seg03 0.000000 0.000000 0.000000 0.000000 0.000000 0.000000 10.000000 
Rope1_Seg04 0.000000 0.000000 0.000000 0.000000 0.000000 0.000000 10.000000 
Rope1_Seg05 0.000000 0.000000 0.000000 0.000000 0.000000 0.000000 10.000000 
Rope1_Seg06 0.000000 0.000000 0.000000 0.000000 0.000000 0.000000 10.000000 
Rope1_Seg07 0.000000 0.000000 0.000000 0.000000 0.000000 0.000000 10.000000 
Rope1_Seg09 0.000000 0.000000 0.000000 0.000000 0.000000 0.000000 10.000000 
L_mid_hand01 0.000000 0.000000 0.000000 0.000000 0.000000 0.000000 10.000000 
L_mid_hand02 0.000000 0.000000 0.000000 0.000000 0.000000 0.000000 10.000000 
L_mid_hand03 0.000000 0.000000 0.000000 0.000000 0.000000 0.000000 10.000000 
null_rope02_connect 0.000000 0.000000 0.000000 0.000000 0.000000 0.000000 10.000000 
Rope2_Seg01 0.000000 0.000000 0.000000 0.000000 0.000000 0.000000 10.000000 
Rope2_Seg02 0.000000 0.000000 0.000000 0.000000 0.000000 0.000000 10.000000 
Rope2_Seg03 0.000000 0.000000 0.000000 0.000000 0.000000 0.000000 10.000000 
Rope2_Seg04 0.000000 0.000000 0.000000 0.000000 0.000000 0.000000 10.000000 
Rope2_Seg05 0.000000 0.000000 0.000000 0.000000 0.000000 0.000000 10.000000 
Rope2_Seg06 0.000000 0.000000 0.000000 0.000000 0.000000 0.000000 10.000000 
Rope2_Seg07 0.000000 0.000000 0.000000 0.000000 0.000000 0.000000 10.000000 
Rope2_Seg09 0.000000 0.000000 0.000000 0.000000 0.000000 0.000000 10.000000 
R_mid_hand01 0.000000 0.000000 0.000000 0.000000 0.000000 0.000000 10.000000 
R_mid_hand02 0.000000 0.000000 0.000000 0.000000 0.000000 0.000000 10.000000 
R_mid_hand03 0.000000 0.000000 0.000000 0.000000 0.000000 0.000000 10.000000 
spine02 0.000000 0.000000 0.000000 0.000000 0.000000 0.000000 10.000000 
spine03 0.000000 0.000000 0.000000 0.000000 0.000000 0.000000 10.000000 
pelvis 0.000000 0.000000 0.000000 0.000000 0.000000 0.000000 10.000000 
null_rope03_connect 0.000000 0.000000 0.000000 0.000000 0.000000 0.000000 10.000000 
null_rope04_connect 0.000000 0.000000 0.000000 0.000000 0.000000 0.000000 10.000000 
Rope3_Seg01 0.000000 0.000000 0.000000 0.000000 0.000000 0.000000 10.000000 
Rope3_Seg02 0.000000 0.000000 0.000000 0.000000 0.000000 0.000000 10.000000 
Rope3_Seg03 0.000000 0.000000 0.000000 0.000000 0.000000 0.000000 10.000000 
Rope3_Seg04 0.000000 0.000000 0.000000 0.000000 0.000000 0.000000 10.000000 
Rope3_Seg05 0.000000 0.000000 0.000000 0.000000 0.000000 0.000000 10.000000 
Rope3_Seg06 0.000000 0.000000 0.000000 0.000000 0.000000 0.000000 10.000000 
Rope3_Seg07 0.000000 0.000000 0.000000 0.000000 0.000000 0.000000 10.000000 
Rope3_Seg08 0.000000 0.000000 0.000000 0.000000 0.000000 0.000000 10.000000 
Rope3_Seg09 0.000000 0.000000 0.000000 0.000000 0.000000 0.000000 10.000000 
R_rear_hand01 0.000000 0.000000 0.000000 0.000000 0.000000 0.000000 10.000000 
R_rear_hand02 0.000000 0.000000 0.000000 0.000000 0.000000 0.000000 10.000000 
R_rear_hand03 0.000000 0.000000 0.000000 0.000000 0.000000 0.000000 10.000000 
Rope4_Seg01 0.000000 0.000000 0.000000 0.000000 0.000000 0.000000 10.000000 
Rope4_Seg02 0.000000 0.000000 0.000000 0.000000 0.000000 0.000000 10.000000 
Rope4_Seg03 0.000000 0.000000 0.000000 0.000000 0.000000 0.000000 10.000000 
Rope4_Seg04 0.000000 0.000000 0.000000 0.000000 0.000000 0.000000 10.000000 
Rope4_Seg05 0.000000 0.000000 0.000000 0.000000 0.000000 0.000000 10.000000 
Rope4_Seg06 0.000000 0.000000 0.000000 0.000000 0.000000 0.000000 10.000000 
Rope4_Seg07 0.000000 0.000000 0.000000 0.000000 0.000000 0.000000 10.000000 
Rope4_Seg08 0.000000 0.000000 0.000000 0.000000 0.000000 0.000000 10.000000 
Rope4_Seg09 0.000000 0.000000 0.000000 0.000000 0.000000 0.000000 10.000000 
L_rear_hand01 0.000000 0.000000 0.000000 0.000000 0.000000 0.000000 10.000000 
L_rear_hand02 0.000000 0.000000 0.000000 0.000000 0.000000 0.000000 10.000000 
L_rear_hand03 0.000000 0.000000 0.000000 0.000000 0.000000 0.000000 10.000000 
#Beginning of Data. Separated by tabs
#Fr	Tx	Ty	Tz	Rx	Ry	Rz	SF
[MASTER]
16 0.000000 0.000000 0.000000 0.001660 0.001660 0.001660 0.000000
17 0.000000 0.000000 0.000000 0.001660 0.001660 0.001660 0.000000
[root]
16 -37.160866 -32.570774 1384.299072 -89.522926 -27.888435 -88.705284 1385.180664
17 -43.275749 -23.616457 1345.578857 -88.905052 -28.036043 -88.271919 1346.481812
[chest]
16 -84.512650 -34.090519 0.000000 -0.480702 -0.087728 -161.855087 91.129311
17 -84.512650 -34.090519 0.000000 -0.273550 -0.188533 -159.546143 91.129311
[L_mid_tent01]
16 27.299500 22.177483 -249.917984 3.222712 37.179970 80.126595 252.380859
17 27.299500 22.177483 -249.917984 3.862628 36.229202 81.347610 252.380859
[R_mid_tent01]
16 23.228794 24.509907 226.238495 160.394135 -47.375835 87.125610 228.744751
17 23.228794 24.509907 226.238495 160.432037 -47.061241 87.899765 228.744751
[spine01]
16 -0.361383 -0.195265 0.000000 0.001893 0.001389 17.489157 0.410763
17 -0.361383 -0.195265 0.000000 0.001895 0.001386 17.619528 0.410763
[Bip01_Neck]
16 165.484543 71.581718 0.000119 175.896118 1.177290 24.871183 180.302734
17 165.484543 71.581718 0.000119 175.896118 1.177290 24.871183 180.302734
[L_humerus]
16 -13.983130 -135.272980 -120.471481 -179.720123 5.252486 -122.589371 181.680161
17 -13.983130 -135.272980 -120.471481 179.840149 5.591937 -120.325066 181.680161
[R_humerus]
16 -13.983309 -135.273102 125.287651 -179.639572 -1.607667 -121.842201 184.909012
17 -13.983309 -135.273102 125.287651 -179.639572 -1.607667 -121.842201 184.909012
[weapon_bone]
16 235.964890 -300.705902 0.000000 0.000000 -89.951546 -128.212341 382.234833
17 235.964890 -300.705902 0.000000 0.000000 -89.951546 -128.212341 382.234833
[Bip01_Head]
16 102.819786 23.735641 5.410224 3.150732 3.423701 -20.839092 105.662476
17 102.819786 23.735638 5.410228 3.150732 3.423702 -20.839094 105.662476
[eye_left_bone]
16 -24.626970 125.451866 -64.772606 0.000000 -90.000000 -99.840431 143.318359
17 -24.626970 125.451866 -64.772606 0.000000 -90.000000 -99.840431 143.318359
[eye_right_bone]
16 -24.626970 125.451866 64.327362 0.000000 -89.960434 80.159386 143.117676
17 -24.626970 125.451866 64.327362 0.000000 -89.960434 80.159386 143.117676
[L_forearm]
16 322.776093 0.000000 -0.000119 0.000291 0.002329 -75.773201 322.776093
17 322.776093 0.000000 -0.000119 0.000285 0.002330 -76.067719 322.776093
[L_front_hand]
16 241.149185 -0.042021 -3.300071 -177.765518 0.382313 -91.188164 241.171753
17 241.149185 -0.042021 -3.300071 -177.783951 0.490196 -93.869644 241.171753
[L_weapon_bone]
16 156.183838 0.000000 0.000000 0.001846 0.001450 13.719131 156.183838
17 156.183838 0.000000 0.000000 0.001865 0.001425 15.234699 156.183838
[L_front_hand01_01]
16 86.095154 20.947098 -0.655860 0.405585 -0.442306 -4.620490 88.609184
17 86.095154 20.947098 -0.655860 0.405585 -0.442306 -4.620490 88.609184
[L_front_hand02_01]
16 86.935165 -11.437475 24.513514 116.959450 3.630817 1.495453 91.046425
17 86.935165 -11.437475 24.513514 116.959450 3.630818 1.495453 91.046425
[L_front_hand03_01]
16 86.637497 -14.123976 -20.424902 -118.420097 -4.656303 -0.152527 90.126129
17 86.637497 -14.123976 -20.424902 -118.420113 -4.656303 -0.152527 90.126129
[L_front_hand01_02]
16 71.020905 -0.000179 0.000030 0.001534 0.001777 -8.378848 71.020905
17 71.020905 -0.000179 0.000030 0.001534 0.001777 -8.378848 71.020905
[L_front_hand02_02]
16 71.020927 -0.000119 0.000060 0.001534 0.001777 -8.378848 71.020927
17 71.020927 -0.000119 0.000060 0.001534 0.001777 -8.378848 71.020927
[L_front_hand03_02]
16 71.020905 -0.000060 0.000060 0.001534 0.001777 -8.378848 71.020905
17 71.020905 -0.000060 0.000060 0.001534 0.001777 -8.378848 71.020905
[R_forearm]
16 322.776428 -0.000060 0.000030 0.199261 -0.078964 -69.987953 322.776428
17 322.776428 -0.000060 0.000030 0.200270 -0.075244 -71.121925 322.776428
[R_front_hand]
16 238.847015 -0.006795 2.210259 -1.660002 -0.478459 -94.831825 238.857239
17 238.847015 -0.006795 2.210259 -1.664812 -0.460570 -94.224472 238.857239
[R_weapon_bone]
16 155.664093 0.002503 -0.000030 0.003393 0.001426 -99.195297 155.664078
17 155.664093 0.002503 -0.000030 0.003381 0.001456 -100.191765 155.664078
[R_front_hand01_01]
16 87.624611 14.231146 22.918642 -116.960213 3.496675 -1.324139 91.683487
17 87.624611 14.231146 22.918642 -116.960213 3.496675 -1.324138 91.683487
[R_front_hand02_01]
16 89.356956 14.367283 -19.491137 118.419647 -4.257089 0.609827 92.579636
17 89.356956 14.367283 -19.491137 118.419632 -4.257088 0.609827 92.579636
[R_front_hand03_01]
16 87.286232 -22.307278 -0.143439 -0.387970 -0.231462 4.232001 90.091743
17 87.286232 -22.307278 -0.143439 -0.387970 -0.231462 4.232001 90.091743
[R_front_hand01_02]
16 71.020905 0.000060 0.000119 0.001777 0.001534 8.377220 71.020905
17 71.020905 0.000060 0.000119 0.001777 0.001534 8.377220 71.020905
[R_front_hand02_02]
16 71.020844 -0.000030 -0.000119 0.001777 0.001534 8.377220 71.020836
17 71.020844 -0.000030 -0.000119 0.001777 0.001534 8.377220 71.020836
[R_front_hand03_02]
16 71.020905 0.000000 0.000030 0.001777 0.001534 8.377220 71.020905
17 71.020905 0.000000 0.000030 0.001777 0.001534 8.377220 71.020905
[null_rope01_connect]
16 328.732483 0.000000 -0.000238 -138.047867 -54.035244 177.163620 328.732483
17 328.732483 0.000000 -0.000238 -138.221741 -55.822819 176.478409 328.732483
[Rope1_Seg01]
16 0.000000 0.000000 0.000000 106.275917 45.234455 128.405945 0.000000
17 0.000000 0.000000 0.000000 108.332741 43.416721 131.615051 0.000000
[Rope1_Seg02]
16 139.999863 -0.000179 0.000000 -0.313278 -7.822386 4.024404 139.999863
17 139.999863 -0.000179 0.000000 -0.555480 -10.518434 5.185066 139.999863
[Rope1_Seg03]
16 139.999924 0.000060 -0.000060 -1.646497 -12.157293 4.630009 139.999924
17 139.999924 0.000060 -0.000060 -2.597589 -15.082347 4.658074 139.999924
[Rope1_Seg04]
16 139.999924 -0.000060 -0.000119 -6.157642 -19.351231 9.611496 139.999924
17 139.999924 -0.000060 -0.000119 -5.843943 -17.968813 10.976287 139.999924
[Rope1_Seg05]
16 139.999832 0.000119 -0.000060 2.055211 -9.145457 14.716240 139.999832
17 139.999832 0.000119 -0.000060 2.826383 -7.583538 13.111851 139.999832
[Rope1_Seg06]
16 139.999954 0.000119 -0.000060 1.554809 -3.269031 5.278468 139.999954
17 139.999954 0.000119 -0.000060 1.201013 -3.317799 4.926351 139.999954
[Rope1_Seg07]
16 139.999985 0.000060 0.000000 0.776900 -1.897260 2.783833 139.999985
17 139.999985 0.000060 0.000000 0.767064 -1.911687 2.759167 139.999985
[Rope1_Seg09]
16 121.602913 0.000119 -0.000089 -89.793175 -1.359789 0.847147 121.602913
17 121.602913 0.000119 -0.000089 -89.793175 -1.359789 0.847147 121.602913
[L_mid_hand01]
16 103.859421 1.038730 8.195221 106.265099 -27.707829 -8.257006 104.187431
17 103.859421 1.038730 8.195221 106.122574 -26.797384 -7.956341 104.187431
[L_mid_hand02]
16 105.572853 -4.139662 -10.864139 -141.010193 23.468805 -25.596123 106.211075
17 105.572853 -4.139662 -10.864139 -140.693253 22.867188 -24.796328 106.211075
[L_mid_hand03]
16 104.641464 17.579376 -3.913581 -16.693562 8.692676 30.645281 106.179977
17 104.641464 17.579376 -3.913581 -16.833530 8.418101 29.727610 106.179977
[null_rope02_connect]
16 328.732849 0.000179 -0.000119 -123.024536 38.133907 17.778360 328.732849
17 328.732849 0.000179 -0.000119 -123.626320 37.534172 17.878151 328.732849
[Rope2_Seg01]
16 0.000095 0.000153 0.000023 -61.636482 53.031265 37.778641 0.000181
17 0.000095 0.000153 0.000024 -65.040070 51.916317 32.854984 0.000182
[Rope2_Seg02]
16 139.999741 -0.000060 -0.000119 0.396171 -8.371262 1.792688 139.999756
17 139.999741 -0.000060 -0.000119 0.273113 -10.025877 2.792970 139.999756
[Rope2_Seg03]
16 140.000107 0.000030 0.000000 0.033534 -10.694812 2.472451 140.000107
17 140.000107 0.000030 0.000000 -0.274629 -11.837399 4.103231 140.000107
[Rope2_Seg04]
16 139.999802 0.000000 -0.000060 -1.809908 -22.037249 5.233546 139.999802
17 139.999802 0.000000 -0.000060 -2.321137 -24.142023 6.520537 139.999802
[Rope2_Seg05]
16 139.999985 -0.000060 0.000119 -3.649956 -19.395102 3.944205 139.999985
17 139.999985 -0.000060 0.000119 -4.014754 -17.963406 2.655661 139.999985
[Rope2_Seg06]
16 139.999893 -0.000030 -0.000119 -1.801577 -6.269208 0.907791 139.999893
17 139.999893 -0.000030 -0.000119 -2.023184 -6.089097 0.634350 139.999893
[Rope2_Seg07]
16 139.999893 0.000060 -0.000060 -1.211928 -3.358042 0.383549 139.999893
17 139.999893 0.000060 -0.000060 -1.390758 -3.339435 0.240132 139.999893
[Rope2_Seg09]
16 121.338966 0.000089 -0.000060 33.793236 -1.359788 -0.847141 121.338966
17 121.338966 0.000089 -0.000060 33.793236 -1.359788 -0.847141 121.338966
[R_mid_hand01]
16 104.680779 11.144459 -10.335981 -42.888714 22.649052 25.245852 105.778534
17 104.680779 11.144459 -10.335981 -43.160065 22.033899 24.531416 105.778534
[R_mid_hand02]
16 104.070427 2.443552 8.231699 73.561592 -28.791136 8.620955 104.424065
17 104.070427 2.443552 8.231699 73.700165 -27.927671 8.331608 104.424065
[R_mid_hand03]
16 106.028137 -11.221827 -5.996406 -167.202805 9.365486 -32.915020 106.788818
17 106.028137 -11.221827 -5.996406 -167.061935 9.167178 -32.023819 106.788818
[spine02]
16 129.756927 0.001550 0.000119 -0.859603 -3.979218 4.261934 129.756927
17 129.756927 0.001550 0.000119 -0.898236 -3.971094 4.809788 129.756927
[spine03]
16 78.764297 0.061096 -3.429156 -0.403152 4.423462 -14.409956 78.838936
17 78.774338 0.059351 -3.331181 -0.452569 4.427835 -15.020758 78.844765
[pelvis]
16 169.435242 0.051022 0.000000 -2.106514 -1.197906 2.822279 169.435257
17 169.435242 0.051022 0.000000 -2.249468 -1.258942 3.138944 169.435257
[null_rope03_connect]
16 -1.257226 -2.466202 137.391083 142.150391 -87.392555 -34.363903 137.418976
17 -1.257226 -2.466202 137.391083 126.270279 -87.120155 -18.716064 137.418976
[null_rope04_connect]
16 -1.259640 -2.480268 -137.844437 142.150391 -87.392555 -34.363903 137.872513
17 -1.259640 -2.480268 -137.844437 126.270279 -87.120155 -18.716064 137.872513
[Rope3_Seg01]
16 0.000000 0.000000 0.000000 -140.844711 -38.433136 -66.119942 0.000000
17 0.000000 0.000000 0.000000 -139.219986 -35.119884 -67.056068 0.000000
[Rope3_Seg02]
16 139.999924 -0.000119 0.000060 -8.231599 4.738939 -19.600979 139.999924
17 139.999924 -0.000119 0.000060 -7.855965 3.930738 -20.416267 139.999924
[Rope3_Seg03]
16 139.999924 -0.000119 0.000119 -55.371937 20.513977 -52.375450 139.999924
17 139.999924 -0.000119 0.000119 -63.005039 19.290195 -58.673244 139.999924
[Rope3_Seg04]
16 139.999924 0.000119 0.000000 -30.023548 32.861748 -17.383038 139.999924
17 139.999924 0.000119 0.000000 -30.506737 34.692936 -16.658579 139.999924
[Rope3_Seg05]
16 139.999924 -0.000238 0.000060 -13.703383 32.080437 -8.421604 139.999924
17 139.999924 -0.000238 0.000060 -10.559285 29.002954 -5.224255 139.999924
[Rope3_Seg06]
16 139.999893 -0.000119 -0.000060 -1.523651 14.070337 -0.286038 139.999893
17 139.999893 -0.000119 -0.000060 -0.979157 11.055968 0.339202 139.999893
[Rope3_Seg07]
16 139.999771 0.000060 -0.000119 0.227035 5.899065 0.241163 139.999771
17 139.999771 0.000060 -0.000119 0.226623 5.156096 0.378219 139.999771
[Rope3_Seg08]
16 139.999985 -0.000060 0.000000 0.499501 3.102517 0.114140 139.999985
17 139.999985 -0.000060 0.000000 0.476415 2.785568 0.196287 139.999985
[Rope3_Seg09]
16 90.185997 -0.000179 -0.000060 89.793228 -1.359877 -0.847183 90.185997
17 90.185997 -0.000179 -0.000060 89.793228 -1.359877 -0.847183 90.185997
[R_rear_hand01]
16 103.366196 -6.073594 -10.757982 -160.597839 15.532868 -26.649004 104.101845
17 103.366196 -6.073594 -10.757982 -160.384277 15.258406 -25.841307 104.101845
[R_rear_hand02]
16 100.509819 12.039542 -7.992327 -35.227280 17.297962 25.851536 101.543350
17 100.509819 12.039542 -7.992327 -35.433647 16.822102 25.150721 101.543350
[R_rear_hand03]
16 101.539970 5.215704 5.435467 83.590370 -27.462675 6.828569 101.819031
17 101.539970 5.215704 5.435467 83.632088 -26.641687 6.728479 101.819031
[Rope4_Seg01]
16 0.000000 0.000000 0.000000 46.971203 -21.951414 -100.068054 0.000000
17 0.000000 0.000000 0.000000 46.669739 -18.567696 -99.739258 0.000000
[Rope4_Seg02]
16 139.999985 0.000060 0.000119 7.772959 -43.060097 10.890532 139.999985
17 139.999985 0.000060 0.000119 8.566084 -46.588802 10.532996 139.999985
[Rope4_Seg03]
16 139.999924 0.000000 -0.000238 41.083775 -47.519920 31.031507 139.999924
17 139.999924 0.000000 -0.000238 44.930836 -48.254116 30.760860 139.999924
[Rope4_Seg04]
16 139.999985 0.000000 0.000119 17.004313 -4.519543 18.725447 139.999985
17 139.999985 0.000000 0.000119 18.568350 -4.126742 21.212523 139.999985
[Rope4_Seg05]
16 139.999802 -0.000060 -0.000119 16.373455 0.479135 32.318283 139.999802
17 139.999802 -0.000060 -0.000119 15.384718 3.168272 33.377876 139.999802
[Rope4_Seg06]
16 139.999924 0.000000 0.000060 5.120741 6.635475 22.181290 139.999924
17 139.999924 0.000000 0.000060 3.293521 6.198132 16.927940 139.999924
[Rope4_Seg07]
16 139.999802 0.000000 0.000000 0.490144 3.254243 8.275537 139.999802
17 139.999802 0.000000 0.000000 0.402385 2.995013 6.977472 139.999802
[Rope4_Seg08]
16 139.999924 0.000000 0.000119 -1.590081 1.678417 4.193900 139.999924
17 139.999924 0.000000 0.000119 -1.556468 1.580312 3.641308 139.999924
[Rope4_Seg09]
16 90.185791 0.000060 0.000060 -135.617828 2.228885 0.850567 90.185791
17 90.185791 0.000060 0.000060 -135.617828 2.228885 0.850567 90.185791
[L_rear_hand01]
16 101.696655 -8.392275 -7.654577 -35.501816 -16.662189 155.085205 102.329041
17 101.696655 -8.392275 -7.654577 -35.721447 -16.132654 155.852661 102.329041
[L_rear_hand02]
16 102.726799 -1.568258 5.773216 83.652657 26.370058 173.309647 102.900848
17 102.726799 -1.568258 5.773216 83.695869 25.468662 173.417496 102.900848
[L_rear_hand03]
16 104.552910 9.721220 -10.420293 -160.313324 -15.164610 -154.428680 105.519653
17 104.552910 9.721220 -10.420293 -160.085953 -14.856227 -155.307068 105.519653
